# xmcd
#
# Track frame offsets: 
#        150
#        22805
#        48660
#        79092
#        119450
#        144437
#
# Disc length: 2252 seconds
#
# Revision: 2
# Processed by: cddbd v1.5.1PL2 Copyright (c) Steve Scherf et al.
# Submitted via: ExactAudioCopy v0.95b4
#
DISCID=4708ca06
DTITLE=Bennie Green - Walkin' And Talkin'
DYEAR=1959
DGENRE=Jazz
TTITLE0=The Shouter
TTITLE1=Green Leaves
TTITLE2=This Love Of Mine
TTITLE3=Walkin' And Talkin'
TTITLE4=All I Do Is Dream Of You
TTITLE5=Hoppin' Johns
EXTD=YEAR: 1959
EXTT0=
EXTT1=
EXTT2=
EXTT3=
EXTT4=
EXTT5=
PLAYORDER=
